<?xml version="1.0" encoding="utf-8"?>
<!-- Generator: Adobe Illustrator 16.0.0, SVG Export Plug-In . SVG Version: 6.00 Build 0)  -->
<!DOCTYPE svg PUBLIC "-//W3C//DTD SVG 1.1//EN" "http://www.w3.org/Graphics/SVG/1.1/DTD/svg11.dtd">
<svg version="1.1" id="Layer_1" xmlns="http://www.w3.org/2000/svg" xmlns:xlink="http://www.w3.org/1999/xlink" x="0px" y="0px"
	 width="612px" height="792px" viewBox="0 0 612 792" enable-background="new 0 0 612 792" xml:space="preserve">
<polygon fill="#122B54" points="49.562,247.185 305.359,98.249 561.156,247.185 561.156,544.816 305.359,693.752 49.562,544.816 "/>
<path fill="#4953A4" d="M327.037,100.041c-11.476-6.455-29.882-6.455-41.357,0L59.048,230.33
	c-11.475,6.455-20.559,22.711-20.559,35.621v260.578c0,13.147,9.323,29.165,20.559,35.62L285.68,692.438
	c11.475,6.455,29.882,6.455,41.357,0l226.632-130.288c11.475-6.455,20.56-22.712,20.56-35.62V265.95
	c0-13.148-9.323-29.166-20.56-35.621L327.037,100.041z M528.089,236.306c11.477,6.455,11.477,17.212,0,23.667L329.667,374.006
	c-11.475,6.455-29.883,6.455-41.357,0L87.019,258.3c-11.475-6.455-11.475-17.212,0-23.667L285.44,120.6
	c11.475-6.455,29.883-6.455,41.358,0L528.089,236.306z M56.18,284.836c0-13.148,9.323-18.408,20.56-11.953l202.964,116.663
	c11.475,6.455,20.56,22.71,20.56,35.621v231.412c0,13.147-9.324,18.408-20.56,11.953L76.739,551.869
	c-11.475-6.455-20.56-22.711-20.56-35.621L56.18,284.836L56.18,284.836z M338.99,664.945c-11.476,6.455-20.56,1.194-20.56-11.953
	V425.166c0-13.148,9.323-29.166,20.56-35.621l196.988-113.077c11.475-6.455,20.559-1.195,20.559,11.953v227.826
	c0,13.147-9.323,29.166-20.559,35.621L338.99,664.945z"/>
<path fill="#B6AC5B" d="M326.037,100.088c-11.476-6.455-29.883-6.455-41.357,0L58.048,230.377
	c-11.475,6.455-20.559,22.711-20.559,35.621v260.579c0,13.146,9.323,29.164,20.559,35.619L284.68,692.485
	c11.475,6.455,29.883,6.455,41.357,0l226.632-130.289c11.475-6.455,20.56-22.711,20.56-35.619v-260.58
	c0-13.148-9.323-29.166-20.56-35.621L326.037,100.088z M527.089,236.353c11.477,6.455,11.477,17.212,0,23.667L328.667,374.053
	c-11.475,6.455-29.883,6.455-41.356,0L86.019,258.347c-11.475-6.455-11.475-17.212,0-23.667l198.42-114.033
	c11.476-6.455,29.884-6.455,41.358,0L527.089,236.353z M55.18,284.883c0-13.148,9.323-18.408,20.56-11.953l202.964,116.663
	c11.476,6.455,20.56,22.711,20.56,35.621v231.412c0,13.148-9.324,18.408-20.56,11.953L75.739,551.917
	c-11.475-6.455-20.56-22.711-20.56-35.621L55.18,284.883L55.18,284.883z M337.99,664.993c-11.476,6.455-20.56,1.193-20.56-11.953
	V425.214c0-13.148,9.323-29.166,20.56-35.621l196.988-113.078c11.475-6.455,20.559-1.195,20.559,11.953v227.826
	c0,13.148-9.323,29.166-20.559,35.621L337.99,664.993z"/>
<line fill="#4953A4" stroke="#B6AC5B" stroke-width="10" stroke-miterlimit="10" x1="108.229" y1="327.996" x2="108.729" y2="385.997"/>
<line fill="#4953A4" stroke="#B6AC5B" stroke-width="10" stroke-miterlimit="10" x1="150.098" y1="350.996" x2="150.598" y2="385.997"/>
<line fill="#4953A4" stroke="#B6AC5B" stroke-width="10" stroke-miterlimit="10" x1="193.469" y1="374.996" x2="193.969" y2="428"/>
<line fill="#4953A4" stroke="#B6AC5B" stroke-width="10" stroke-miterlimit="10" x1="234.914" y1="450" x2="235.414" y2="492.5"/>
<line fill="none" stroke="#B6AC5B" stroke-width="10" stroke-miterlimit="10" x1="379.168" y1="408.5" x2="379.168" y2="451.5"/>
<line fill="none" stroke="#B6AC5B" stroke-width="10" stroke-miterlimit="10" x1="420.501" y1="381.834" x2="420.501" y2="405.5"/>
<line fill="none" stroke="#B6AC5B" stroke-width="10" stroke-miterlimit="10" x1="462.501" y1="359.167" x2="463.168" y2="405.5"/>
<line fill="#4953A4" stroke="#B6AC5B" stroke-width="10" stroke-miterlimit="10" x1="108.479" y1="483.416" x2="108.979" y2="532.801"/>
<line fill="#4953A4" stroke="#B6AC5B" stroke-width="10" stroke-miterlimit="10" x1="108.229" y1="409.5" x2="108.729" y2="465"/>
<line fill="#4953A4" stroke="#B6AC5B" stroke-width="10" stroke-miterlimit="10" x1="150.098" y1="403.834" x2="150.598" y2="438.5"/>
<line fill="#4953A4" stroke="#B6AC5B" stroke-width="10" stroke-miterlimit="10" x1="150.348" y1="517.501" x2="150.848" y2="565.5"/>
<line fill="#4953A4" stroke="#B6AC5B" stroke-width="10" stroke-miterlimit="10" x1="193.219" y1="450" x2="193.719" y2="508.108"/>
<line fill="#4953A4" stroke="#B6AC5B" stroke-width="10" stroke-miterlimit="10" x1="192.969" y1="523.834" x2="193.469" y2="589.666"/>
<line fill="#4953A4" stroke="#B6AC5B" stroke-width="10" stroke-miterlimit="10" x1="150.848" y1="457.758" x2="151.348" y2="496.008"/>
<line fill="#4953A4" stroke="#B6AC5B" stroke-width="10" stroke-miterlimit="10" x1="235.164" y1="403.165" x2="235.664" y2="433.167"/>
<line fill="#4953A4" stroke="#B6AC5B" stroke-width="10" stroke-miterlimit="10" x1="234.414" y1="508.108" x2="234.914" y2="565.5"/>
<line fill="#4953A4" stroke="#B6AC5B" stroke-width="10" stroke-miterlimit="10" x1="234.664" y1="575" x2="235.164" y2="614.552"/>
<line fill="none" stroke="#B6AC5B" stroke-width="10" stroke-miterlimit="10" x1="379.168" y1="464.5" x2="379.168" y2="553.167"/>
<line fill="none" stroke="#B6AC5B" stroke-width="10" stroke-miterlimit="10" x1="379.168" y1="565.5" x2="379.168" y2="614.552"/>
<line fill="none" stroke="#B6AC5B" stroke-width="10" stroke-miterlimit="10" x1="420.501" y1="479.167" x2="420.501" y2="534.167"/>
<line fill="none" stroke="#B6AC5B" stroke-width="10" stroke-miterlimit="10" x1="420.501" y1="550.5" x2="420.501" y2="589.666"/>
<line fill="none" stroke="#B6AC5B" stroke-width="10" stroke-miterlimit="10" x1="420.501" y1="421.833" x2="420.501" y2="460.5"/>
<line fill="none" stroke="#B6AC5B" stroke-width="10" stroke-miterlimit="10" x1="463.764" y1="492.5" x2="464.534" y2="561.832"/>
<line fill="none" stroke="#B6AC5B" stroke-width="10" stroke-miterlimit="10" x1="462.834" y1="420.166" x2="463.501" y2="475.5"/>
<line fill="none" stroke="#4953A4" stroke-width="10" stroke-miterlimit="10" x1="504.501" y1="336.827" x2="505.168" y2="400.847"/>
<line fill="none" stroke="#B6AC5B" stroke-width="10" stroke-miterlimit="10" x1="505.811" y1="500.833" x2="506.534" y2="539.492"/>
<line fill="none" stroke="#B6AC5B" stroke-width="10" stroke-miterlimit="10" x1="504.834" y1="420.166" x2="505.501" y2="485.5"/>
<line fill="none" stroke="#B6AC5B" stroke-width="10" stroke-miterlimit="10" x1="504.167" y1="336.326" x2="504.834" y2="400.346"/>
</svg>
